# xmcd
#
# Track frame offsets:
#	150
#	12570
#	30381
#	41539
#	51811
#	65734
#	92384
#	121491
#	144573
#	160708
#	178250
#
# Disc length: 2977 seconds
#
# Revision: 0
# Processed by: cddbd v1.5.1PL0 Copyright (c) Steve Scherf et al.
# Submitted via: EasyCDDAExtractor 8.0.1.1
#
DISCID=900b9f0b
DTITLE=David Long - Sampler
DYEAR=1900
DGENRE=Blues
TTITLE0=Get My Hambone Boiled  (Solo)
TTITLE1=Country Blues  (Solo)
TTITLE2=Blues for Dixie  (Solo)
TTITLE3=Hipshake  (Solo)
TTITLE4=Evening  (Solo)
TTITLE5=Pretty Polly  (Man Alive!)
TTITLE6=I've Just Seen the Rock of Ages  (Man Alive!)
TTITLE7=Rainbow Sign  (Man Alive!)
TTITLE8=Raleigh and Spencer  (Man Alive!)
TTITLE9=Sugar Babe  (Man Alive!)
TTITLE10=Country Blues  (Man Alive!)
EXTD=
EXTT0=
EXTT1=
EXTT2=
EXTT3=
EXTT4=
EXTT5=
EXTT6=
EXTT7=
EXTT8=
EXTT9=
EXTT10=
PLAYORDER=
